[color=red]Stardust[/color]

[img]http://img340.imageshack.us/img340/2407/stardusty.jpg[/img]

Directed by 	Matthew Vaughn
Produced by 	Lorenzo di Bonaventura
Michael Dreyer
Neil Gaiman
Matthew Vaughn
Screenplay by 	Jane Goldman
Matthew Vaughn
Based on 	Stardust by Neil Gaiman
Narrated by 	Ian McKellen
Starring 	Charlie Cox
Claire Danes
Michelle Pfeiffer
Sienna Miller
Ricky Gervais
Jason Flemying
Mark Strong
Rupert Everett
David Kelly
Nathaniel Parker
David Walliams
Peter O'Toole
Robert De Niro
Music by 	Ilan Eshkeri
Cinematography 	Ben Davis
Editing by 	Jon Harris
Studio 	Marv
Ingenious Film Partners
Distributed by 	Paramount Pictures
Release date(s) 	August 10, 2007 (2007-08-10)
Running time 	128 minutes
Country 	United Kingdom
United States


Language 	English - Italiano
Sub: English - Italiano


[img]http://img204.imageshack.us/img204/1204/screenshotj.gif[/img]

[img]http://img832.imageshack.us/img832/5306/vlcsnap2010110107h51m16.png[/img]

[img]http://img217.imageshack.us/img217/559/vlcsnap2010110107h52m16.png[/img]

General
Complete name                    : K:\Download Completi\5T4RDU5T\5T4RDU5T.avi
Format                           : AVI
Format/Info                      : Audio Video Interleave
File size                        : 1.37 GiB
Duration                         : 2h 2mn
Overall bit rate                 : 1 597 Kbps
Writing application              : VirtualDubMod 1.4.13
Writing library                  : VirtualDub build 14328/release

Video
ID                               : 0
Format                           : MPEG-4 Visual
Format profile                   : Advanced Simple@L5
Format settings, BVOP            : Yes
Format settings, QPel            : No
Format settings, GMC             : No warppoints
Format settings, Matrix          : Default (H.263)
Codec ID                         : XVID
Codec ID/Hint                    : XviD
Duration                         : 2h 2mn
Bit rate                         : 1 167 Kbps
Width                            : 688 pixels
Height                           : 288 pixels
Display aspect ratio             : 2.35:1
Frame rate                       : 25.000 fps
Color space                      : YUV
Chroma subsampling               : 4:2:0
Bit depth                        : 8 bits
Scan type                        : Progressive
Bits/(Pixel*Frame)               : 0.236
Stream size                      : 1 022 MiB (73%)
Writing library                  : XviD 1.2.1 (UTC 2008-12-04)

Audio #1
ID                               : 1
Format                           : AC-3
Format/Info                      : Audio Coding 3
Mode extension                   : CM (complete main)
Codec ID                         : 2000
Duration                         : 2h 2mn
Bit rate mode                    : Constant
Bit rate                         : 224 Kbps
Channel(s)                       : 6 channels
Channel positions                : Front: L C R, Side: L R, LFE
Sampling rate                    : 48.0 KHz
Bit depth                        : 16 bits
Stream size                      : 196 MiB (14%)
Alignment                        : Split accross interleaves
Interleave, duration             : 40 ms (1.00 video frame)
Interleave, preload duration     : 500 ms

Audio #2
ID                               : 2
Format                           : AC-3
Format/Info                      : Audio Coding 3
Mode extension                   : CM (complete main)
Codec ID                         : 2000
Duration                         : 2h 2mn
Bit rate mode                    : Constant
Bit rate                         : 192 Kbps
Channel(s)                       : 2 channels
Channel positions                : Front: L R
Sampling rate                    : 48.0 KHz
Bit depth                        : 16 bits
Stream size                      : 168 MiB (12%)
Alignment                        : Split accross interleaves
Interleave, duration             : 40 ms (1.00 video frame)
Interleave, preload duration     : 500 ms
